<svg width="24" height="24" viewBox="0 0 24 24" fill="none" xmlns="http://www.w3.org/2000/svg">
<path fill-rule="evenodd" clip-rule="evenodd" d="M7.86866 1.5484H21.6774C22.9581 1.5484 24 2.59032 24 3.87098V13.0161C24 14.2968 22.9581 15.3387 21.6774 15.3387H12.7581C12.3305 15.3387 11.9839 14.9921 11.9839 14.5645C11.9839 14.1369 12.3305 13.7903 12.7581 13.7903H21.6774C22.1043 13.7903 22.4516 13.443 22.4516 13.0161V3.87098C22.4516 3.44411 22.1043 3.09679 21.6774 3.09679H7.86861C7.44174 3.09679 7.09442 3.44411 7.09442 3.87098V11.1741L7.86556 10.7039C8.77316 10.1505 9.93213 10.2889 10.6838 11.0406C11.4671 11.8239 11.5794 13.0543 10.9509 13.9664L8.2484 17.8882C8.69463 18.2431 8.98152 18.7902 8.98152 19.4032V20.5161C8.98152 21.5834 8.11326 22.4516 7.04603 22.4516H1.93548C0.868258 22.4516 0 21.5834 0 20.5161V19.4032C0 18.6112 0.478403 17.9291 1.16129 17.6299V11.9459C1.16129 11.1187 1.4834 10.3411 2.06831 9.75621L5.54608 6.27843V3.87098C5.54608 2.59032 6.588 1.5484 7.86866 1.5484ZM7.04603 20.9032C7.25947 20.9032 7.43313 20.7296 7.43313 20.5161V19.4032C7.43313 19.1898 7.25947 19.0161 7.04603 19.0161H1.93548C1.72205 19.0161 1.54839 19.1898 1.54839 19.4032V20.5161C1.54839 20.7296 1.72205 20.9032 1.93548 20.9032H7.04603ZM4.66156 13.5644C4.43894 13.1993 4.55448 12.7229 4.91952 12.5003L5.54608 12.1182V8.46814L3.16321 10.8511C2.87076 11.1435 2.70968 11.5324 2.70968 11.9459V17.4678H6.65782L9.67592 13.0878C10.131 12.4274 9.35889 11.6066 8.67169 12.0259L5.7256 13.8223C5.36056 14.0449 4.88414 13.9294 4.66156 13.5644ZM20.6364 6.63637C20.9878 6.2849 20.9878 5.71505 20.6364 5.36358C20.2849 5.01211 19.7151 5.01211 19.3636 5.36358L15.5 9.22718L13.6364 7.36358C13.2849 7.01211 12.7151 7.01211 12.3636 7.36358C12.0121 7.71505 12.0121 8.2849 12.3636 8.63637L14.8636 11.1364C15.2151 11.4878 15.7849 11.4878 16.1364 11.1364L20.6364 6.63637Z" fill="black"/>
</svg>
