<svg width="236" height="48" viewBox="0 0 236 48" fill="none" xmlns="http://www.w3.org/2000/svg">
<path d="M24 48C37.2548 48 48 37.2548 48 24C48 10.7452 37.2548 0 24 0C10.7452 0 0 10.7452 0 24C0 37.2548 10.7452 48 24 48Z" fill="#4391A0"/>
<path d="M18.2565 11.7733V38.892C18.2565 42.0301 20.8026 44.5762 23.9407 44.5762C27.0789 44.5762 29.625 42.0301 29.625 38.892V11.7733H18.2565Z" fill="white"/>
<path d="M23.9407 12.7206V44.5762C27.0789 44.5762 29.6249 42.0302 29.6249 38.892V12.7206H23.9407Z" fill="#DDDDDD"/>
<path d="M26.2105 22.4211C26.6029 22.4211 26.9211 22.103 26.9211 21.7105C26.9211 21.3181 26.6029 21 26.2105 21C25.8181 21 25.5 21.3181 25.5 21.7105C25.5 22.103 25.8181 22.4211 26.2105 22.4211Z" fill="#005E6D"/>
<path d="M25.6383 24.375C25.6383 23.6958 25.1286 23.1675 24.4733 23.1675C23.818 23.1675 23.3083 23.6958 23.3083 24.375C23.3083 23.5448 22.6529 22.7901 21.7791 22.7901C20.9782 22.7901 20.25 23.4694 20.25 24.375V38.901C20.25 41.0142 21.9248 42.75 23.9636 42.75C26.0024 42.75 27.75 41.0142 27.75 38.901V24.375H25.6383ZM23.1626 30.7146C22.5801 30.7146 22.0704 30.1863 22.0704 29.5826C22.0704 28.9788 22.5801 28.4505 23.1626 28.4505C23.7451 28.4505 24.2549 28.9788 24.2549 29.5826C24.2549 30.1863 23.7451 30.7146 23.1626 30.7146ZM25.2015 35.6203C24.7646 35.6203 24.4733 35.2429 24.4733 34.8656C24.4733 34.4128 24.8374 34.1109 25.2015 34.1109C25.6383 34.1109 25.9296 34.4882 25.9296 34.8656C25.9296 35.3184 25.6383 35.6203 25.2015 35.6203Z" fill="#005E6D"/>
<path d="M29.625 11.7733H18.2565V13.668H29.625V11.7733Z" fill="#DDDDDD"/>
<path d="M30.7499 11.5365C30.7499 12.1878 30.3354 12.7207 29.8025 12.7207H18.1971C17.6642 12.7207 17.2498 12.1878 17.2498 11.5365C17.2498 10.8851 17.6642 10.3522 18.1971 10.3522H29.8025C30.3354 10.3522 30.7499 10.8851 30.7499 11.5365Z" fill="white"/>
<path d="M21.4539 6.79957C22.3369 6.79957 23.0526 6.08381 23.0526 5.20087C23.0526 4.31794 22.3369 3.60217 21.4539 3.60217C20.571 3.60217 19.8552 4.31794 19.8552 5.20087C19.8552 6.08381 20.571 6.79957 21.4539 6.79957Z" fill="white"/>
<path d="M25.5987 8.87197C26.1547 8.87197 26.6053 8.42131 26.6053 7.86539C26.6053 7.30946 26.1547 6.8588 25.5987 6.8588C25.0428 6.8588 24.5922 7.30946 24.5922 7.86539C24.5922 8.42131 25.0428 8.87197 25.5987 8.87197Z" fill="white"/>
<path d="M56.9545 18.196H62.3494V33H65.4858V18.196H70.8807V15.5455H56.9545V18.196ZM73.5653 33H76.7273V25.5852H84.8153V33H87.9858V15.5455H84.8153V22.9347H76.7273V15.5455H73.5653V33ZM100.911 20.3438H103.953C103.893 17.3949 101.379 15.3068 97.6634 15.3068C93.9986 15.3068 91.2457 17.3693 91.2543 20.4545C91.2543 22.9602 93.0355 24.4006 95.9077 25.142L97.8935 25.6534C99.777 26.1307 101.021 26.7188 101.03 28.0739C101.021 29.5653 99.6065 30.5625 97.544 30.5625C95.5668 30.5625 94.0327 29.6761 93.9048 27.8438H90.794C90.9219 31.3125 93.5043 33.2642 97.5696 33.2642C101.754 33.2642 104.183 31.1761 104.192 28.0994C104.183 25.0739 101.686 23.6932 99.0611 23.071L97.4247 22.6619C95.9929 22.321 94.4418 21.7159 94.4588 20.2585C94.4673 18.946 95.6435 17.983 97.6207 17.983C99.5043 17.983 100.749 18.8608 100.911 20.3438ZM112.197 18.196H117.592V33H120.728V18.196H126.123V15.5455H112.197V18.196ZM132.568 33.2557C135.619 33.2557 137.716 31.7642 138.261 29.4886L135.381 29.1648C134.963 30.2727 133.94 30.8523 132.611 30.8523C130.616 30.8523 129.295 29.5398 129.27 27.2983H138.389V26.3523C138.389 21.7585 135.628 19.7386 132.406 19.7386C128.656 19.7386 126.21 22.4915 126.21 26.5312C126.21 30.6392 128.622 33.2557 132.568 33.2557ZM129.278 25.2188C129.372 23.5483 130.608 22.142 132.449 22.142C134.222 22.142 135.415 23.4375 135.432 25.2188H129.278ZM151.346 23.3693C150.92 21.1534 149.147 19.7386 146.079 19.7386C142.925 19.7386 140.778 21.2898 140.786 23.7102C140.778 25.6193 141.954 26.8807 144.468 27.4006L146.701 27.8693C147.903 28.1335 148.465 28.6193 148.465 29.3608C148.465 30.2557 147.494 30.929 146.028 30.929C144.613 30.929 143.692 30.3153 143.428 29.1392L140.42 29.429C140.803 31.8324 142.823 33.2557 146.036 33.2557C149.309 33.2557 151.619 31.5597 151.627 29.0795C151.619 27.2131 150.417 26.071 147.945 25.5341L145.712 25.0568C144.383 24.7585 143.854 24.2983 143.863 23.5398C143.854 22.6534 144.835 22.0398 146.121 22.0398C147.545 22.0398 148.295 22.8153 148.533 23.6761L151.346 23.3693ZM160.708 19.9091H158.126V16.7727H155.04V19.9091H153.183V22.2955H155.04V29.5739C155.023 32.0369 156.813 33.2472 159.131 33.179C160.009 33.1534 160.614 32.983 160.947 32.8722L160.427 30.4602C160.256 30.5028 159.907 30.5795 159.523 30.5795C158.748 30.5795 158.126 30.3068 158.126 29.0625V22.2955H160.708V19.9091ZM175.293 33C180.611 33 183.764 29.7102 183.764 24.2557C183.764 18.8182 180.611 15.5455 175.412 15.5455H169.378V33H175.293ZM172.54 30.2642V18.2812H175.233C178.778 18.2812 180.628 20.2585 180.628 24.2557C180.628 28.2699 178.778 30.2642 175.139 30.2642H172.54ZM192.428 33.2557C195.479 33.2557 197.575 31.7642 198.121 29.4886L195.24 29.1648C194.822 30.2727 193.8 30.8523 192.47 30.8523C190.476 30.8523 189.155 29.5398 189.129 27.2983H198.249V26.3523C198.249 21.7585 195.487 19.7386 192.266 19.7386C188.516 19.7386 186.07 22.4915 186.07 26.5312C186.07 30.6392 188.482 33.2557 192.428 33.2557ZM189.138 25.2188C189.232 23.5483 190.467 22.142 192.308 22.142C194.081 22.142 195.274 23.4375 195.291 25.2188H189.138ZM200.859 33H203.944V25.0398C203.944 23.429 205.018 22.3381 206.347 22.3381C207.651 22.3381 208.546 23.2159 208.546 24.5625V33H211.572V24.8352C211.572 23.3608 212.45 22.3381 213.941 22.3381C215.185 22.3381 216.174 23.071 216.174 24.6903V33H219.268V24.2131C219.268 21.2898 217.58 19.7386 215.177 19.7386C213.276 19.7386 211.827 20.6761 211.248 22.1335H211.112C210.609 20.6506 209.339 19.7386 207.575 19.7386C205.819 19.7386 204.506 20.642 203.961 22.1335H203.808V19.9091H200.859V33ZM228.108 33.2557C231.943 33.2557 234.381 30.554 234.381 26.5057C234.381 22.4489 231.943 19.7386 228.108 19.7386C224.273 19.7386 221.835 22.4489 221.835 26.5057C221.835 30.554 224.273 33.2557 228.108 33.2557ZM228.125 30.7841C226.003 30.7841 224.963 28.892 224.963 26.4972C224.963 24.1023 226.003 22.1847 228.125 22.1847C230.213 22.1847 231.253 24.1023 231.253 26.4972C231.253 28.892 230.213 30.7841 228.125 30.7841Z" fill="white"/>
</svg>
