<svg width="24" height="24" viewBox="0 0 24 24" fill="none" xmlns="http://www.w3.org/2000/svg">
<path fill-rule="evenodd" clip-rule="evenodd" d="M21.6774 1.5484H7.86866C6.588 1.5484 5.54608 2.59032 5.54608 3.87098V6.27843L2.06831 9.75621C1.4834 10.3411 1.16129 11.1187 1.16129 11.9459V17.6299C0.478403 17.9291 0 18.6112 0 19.4032V20.5161C0 21.5834 0.868258 22.4516 1.93548 22.4516H7.04603C8.11326 22.4516 8.98152 21.5834 8.98152 20.5161V19.4032C8.98152 18.7902 8.69463 18.2431 8.2484 17.8882L10.9509 13.9664C11.5794 13.0543 11.4671 11.8239 10.6838 11.0406C9.93213 10.2889 8.77316 10.1505 7.86556 10.7039L7.09442 11.1741V3.87098C7.09442 3.44411 7.44174 3.09679 7.86861 3.09679H21.6774C22.1043 3.09679 22.4516 3.44411 22.4516 3.87098V13.0161C22.4516 13.443 22.1043 13.7903 21.6774 13.7903H12.7581C12.3305 13.7903 11.9839 14.1369 11.9839 14.5645C11.9839 14.9921 12.3305 15.3387 12.7581 15.3387H21.6774C22.9581 15.3387 24 14.2968 24 13.0161V3.87098C24 2.59032 22.9581 1.5484 21.6774 1.5484ZM7.43313 20.5161C7.43313 20.7296 7.25947 20.9032 7.04603 20.9032H1.93548C1.72205 20.9032 1.54839 20.7296 1.54839 20.5161V19.4032C1.54839 19.1898 1.72205 19.0161 1.93548 19.0161H7.04603C7.25947 19.0161 7.43313 19.1898 7.43313 19.4032V20.5161ZM4.91952 12.5003C4.55448 12.7229 4.43894 13.1993 4.66156 13.5644C4.88414 13.9294 5.36056 14.0449 5.7256 13.8223L8.67169 12.0259C9.35889 11.6066 10.131 12.4274 9.67592 13.0878L6.65782 17.4678H2.70968V11.9459C2.70968 11.5324 2.87076 11.1435 3.16321 10.8511L5.54608 8.46814V12.1182L4.91952 12.5003ZM19.6364 5.36358C19.9878 5.71505 19.9878 6.2849 19.6364 6.63637L17.7728 8.49995L19.6364 10.3636C19.9879 10.7151 19.9879 11.2849 19.6364 11.6364C19.2849 11.9878 18.7151 11.9878 18.3636 11.6364L16.5 9.77274L14.6364 11.6364C14.2849 11.9878 13.7151 11.9878 13.3636 11.6364C13.0121 11.2849 13.0121 10.7151 13.3636 10.3636L15.2272 8.49995L13.3636 6.63637C13.0122 6.2849 13.0122 5.71505 13.3636 5.36358C13.7151 5.01211 14.2849 5.01211 14.6364 5.36358L16.5 7.22716L18.3636 5.36358C18.7151 5.01211 19.2849 5.01211 19.6364 5.36358Z" fill="black"/>
</svg>
